<svg data-v-0dd9719b="" version="1.0" xmlns="http://www.w3.org/2000/svg" xmlns:xlink="http://www.w3.org/1999/xlink" width="100%" height="100%" viewBox="0 0 340.000000 250.000000" preserveAspectRatio="xMidYMid meet" color-interpolation-filters="sRGB" style="margin: auto;"> <rect data-v-0dd9719b="" x="0" y="0" width="100%" height="100%" fill="#fff" fill-opacity="1" class="background"></rect> <rect data-v-0dd9719b="" x="0" y="0" width="100%" height="100%" fill="url(#watermark)" fill-opacity="1" class="watermarklayer"></rect> <g data-v-0dd9719b="" fill="#e50012" class="icon-text-wrapper icon-svg-group iconsvg" transform="translate(47.470001220703125,96.42874908447266)"><g class="iconsvg-imagesvg" transform="translate(0,4.111600875854492)"><g><rect fill="#e50012" fill-opacity="0" stroke-width="2" x="0" y="0" width="60" height="48.91929132253304" class="image-rect"></rect> <svg x="0" y="0" width="60" height="48.91929132253304" filtersec="colorsb4860508219" class="image-svg-svg primary" style="overflow: visible;"><svg version="1.1" id="图层_1" xmlns="http://www.w3.org/2000/svg" xmlns:xlink="http://www.w3.org/1999/xlink" x="0px" y="0px" viewBox="1.6299999952316284 0.9700000286102295 103.37000274658203 84.27999877929688" enable-background="new 0 0 106 86" xml:space="preserve">
<g>
	<polygon fill="#231815" points="81.11,85.25 39.73,85.25 63.62,39.01 105,39.01 	"></polygon>
	<polygon fill="#231815" points="104.85,33.41 63.47,33.41 30.37,0.97 71.75,0.97 	"></polygon>
	<polygon fill="#E50012" points="35.38,83.29 1.63,49.63 25.52,3.39 59.27,37.05 	"></polygon>
</g>
</svg></svg> <!----></g></g> <g transform="translate(67,0)"><g data-gra="path-name" fill-rule="" class="tp-name iconsvg-namesvg" transform="translate(0,0)"><g transform="scale(1)"><g><path d="M23.95 0.31L34.5 0.31 37.79-3.87Q41.44-1.05 43.68 0.83L43.68 0.83Q43.46 1.58 42.41 1.58L42.41 1.58 1.76 1.58 1.41 0.31 18.15 0.31 18.15-37.62 25.62-36.91Q25.4-35.86 23.95-35.64L23.95-35.64 23.95-20.57 31.33-20.57 34.54-24.7Q38.19-21.97 40.34-20.04L40.34-20.04Q40.12-19.29 39.11-19.29L39.11-19.29 23.95-19.29 23.95 0.31ZM49.22-37.66L49.22-37.66 49.61-37.92Q55.59-37 57.04-33.97L57.04-33.97Q57.96-32.12 56.71-30.76 55.46-29.4 53.57-30.28L53.57-30.28Q53.26-30.45 52.91-30.67L52.91-30.67Q52.25-34.01 49.22-37.66ZM46.19-27.29L46.19-27.29 46.58-27.55Q52.29-26.72 53.57-23.82L53.57-23.82Q54.4-22.06 53.17-20.74L53.17-20.74Q51.94-19.42 50.14-20.3L50.14-20.3Q49.79-20.48 49.48-20.74L49.48-20.74Q49.26-22.41 48.32-24.21 47.37-26.02 46.19-27.29ZM58.49-30.54L58.49-30.54 59.28-30.37Q55.15-16.35 54.23-12.13L54.23-12.13Q53.66-9.4 53.7-7.91L53.7-7.91Q53.7-7.03 54.58-4.55 55.46-2.07 55.37 0.22L55.37 0.22Q55.33 1.89 54.34 2.92 53.35 3.96 51.77 3.96L51.77 3.96Q49.92 3.96 49.48 1.63L49.48 1.63Q50.1-1.98 49.99-4.77 49.88-7.56 49.04-8.09L49.04-8.09Q48.25-8.7 46.76-8.83L46.76-8.83 46.76-9.67 48.74-9.67Q49.09-9.67 49.26-9.71 49.44-9.76 49.64-9.95 49.83-10.15 50.05-10.63L50.05-10.63Q50.98-12.52 58.49-30.54ZM68.95-23.25L68.95-23.25 69.39-23.55Q74.36-22.41 75.28-19.73L75.28-19.73Q75.89-18.06 74.66-17.01L74.66-17.01Q73.39-15.91 71.81-17.01L71.81-17.01Q71.67-17.09 71.54-17.18L71.54-17.18Q71.24-20.04 68.95-23.25ZM67.9-13.32L67.9-13.32 68.25-13.58Q73.78-12.79 75.1-10.02L75.1-10.02Q75.85-8.35 74.75-7.21L74.75-7.21Q73.56-5.93 71.81-6.86L71.81-6.86Q71.63-6.94 71.46-7.08L71.46-7.08Q70.8-10.06 67.9-13.32ZM64.38-5.58L64.38-5.58 77.78-5.58Q78.35-8.88 78.66-14.28L78.66-14.28 65.74-14.28Q65.21-10.85 64.38-5.58ZM79.01-24.04L79.01-24.04 67.06-24.04Q66.93-23.03 65.92-15.56L65.92-15.56 78.75-15.56Q78.97-22.24 79.01-24.04ZM82.66-5.63L82.66-5.63 84.95-9.18Q87.67-6.68 89.21-5.05L89.21-5.05Q88.99-4.31 88.02-4.31L88.02-4.31 82.49-4.31Q81.74 0.18 80.2 1.71L80.2 1.71Q78.09 3.82 74.27 3.82L74.27 3.82Q74.27 1.36 73.39 0.48L73.39 0.48Q72.38-0.7 69.26-1.27L69.26-1.27 69.26-1.89Q73.56-1.58 74.93-1.58L74.93-1.58Q76.2-1.58 76.68-2.18 77.17-2.77 77.52-4.31L77.52-4.31 64.2-4.31Q63.98-3.08 63.63-0.97L63.63-0.97Q61.88 0 58.71-0.7L58.71-0.7Q60.12-7.95 61.08-14.28L61.08-14.28 57.39-14.28 57-15.56 61.26-15.56Q62.23-22.72 62.45-24.48L62.45-24.48Q60.38-22.41 57.92-20.7L57.92-20.7 57.39-21.09Q62.31-27.86 64.6-38.23L64.6-38.23 71.37-35.99Q71.06-35.02 69.57-35.16L69.57-35.16Q68.73-33.27 67.5-31.16L67.5-31.16 80.9-31.16 83.63-34.8Q86.62-32.3 88.37-30.59L88.37-30.59Q88.24-29.88 87.14-29.88L87.14-29.88 66.75-29.88Q66.23-29.05 64.56-26.85L64.56-26.85 68.03-25.36 78.57-25.36 81.12-27.99 85.65-24.08Q85.08-23.42 83.76-23.25L83.76-23.25Q83.72-18.98 83.54-15.56L83.54-15.56 85.61-18.81Q88.02-16.57 89.38-14.99L89.38-14.99Q89.25-14.28 88.2-14.28L88.2-14.28 83.41-14.28Q83.14-8.66 82.66-5.63ZM100.42-37.13L100.42-37.13 107.71-36.43Q107.58-35.42 106.13-35.2L106.13-35.2Q105.95-24.92 105.42-20.48L105.42-20.48Q111.45-17.18 112.76-12.7L112.76-12.7Q113.64-9.71 112.19-7.95L112.19-7.95Q110.79-6.33 108.72-7.38L108.72-7.38Q108.19-7.65 107.67-8.13L107.67-8.13Q107.4-12.44 104.99-17.45L104.99-17.45Q102.57-3.6 91.76 3.91L91.76 3.91 91.23 3.3Q92.94 1.27 94.28-0.97 95.63-3.21 96.57-5.43 97.51-7.65 98.22-10.02 98.92-12.39 99.32-14.77 99.71-17.14 99.98-19.64 100.24-22.15 100.31-24.59 100.37-27.03 100.42-29.58 100.46-32.12 100.42-34.58L100.42-34.58Q100.42-36.3 100.42-37.13ZM116.24-37.22L116.24-37.22 123.49-36.52Q123.35-35.46 121.86-35.24L121.86-35.24Q122.34-22.81 125.05-14.9 127.75-6.99 134.17-2.5L134.17-2.5 134.03-1.98Q132.19-1.54 130.94 0.02 129.68 1.58 129.29 3.96L129.29 3.96Q125.73 0.04 123.95-6.81 122.17-13.67 121.55-23.16L121.55-23.16Q121.25-18.46 120.43-14.9 119.62-11.34 117.8-7.78 115.97-4.22 112.63-1.32 109.29 1.58 104.37 3.91L104.37 3.91 103.84 3.3Q106.13 1.54 107.95-0.4 109.78-2.33 111.05-4.33 112.32-6.33 113.27-8.55 114.21-10.77 114.74-13.05 115.27-15.34 115.62-17.84 115.97-20.35 116.08-22.94 116.19-25.53 116.24-28.34 116.28-31.16 116.24-34.06L116.24-34.06Q116.24-36.17 116.24-37.22ZM169.06-15.25L169.06-15.25 169.15-14.72Q161.94-9.89 154.73-5.93L154.73-5.93Q154.42-5.05 153.63-4.75L153.63-4.75 150.6-10.42Q155.57-11.38 169.06-15.25ZM152.93-20.96L161.24-20.96 163.83-24.74Q166.95-22.15 168.75-20.39L168.75-20.39Q168.53-19.64 167.48-19.64L167.48-19.64 153.28-19.64 152.93-20.96ZM171.65-29.71L174.55-32.74 179.47-28.34Q178.86-27.73 177.41-27.55L177.41-27.55Q176.84-14.77 175.63-7.73 174.42-0.7 172.27 1.41L172.27 1.41Q169.67 3.87 165.06 3.87L165.06 3.87Q165.06 1.19 163.92 0.09L163.92 0.09Q162.55-1.27 158.6-2.07L158.6-2.07 158.64-2.64Q164.14-2.15 166.2-2.15L166.2-2.15Q167.34-2.15 168.18-2.86L168.18-2.86Q171.04-5.27 172.18-28.43L172.18-28.43 158.33-28.43Q154.6-23.25 150.03-20.43L150.03-20.43 149.55-20.83Q151.04-22.85 151.74-24.21L151.74-24.21 146.65-24.21 146.65-12.48Q147.39-12.74 154.07-15.07L154.07-15.07 154.2-14.59Q147.22-9.05 139.83-4.44L139.83-4.44Q139.53-3.47 138.74-3.16L138.74-3.16 135.88-9.01Q137.9-9.58 141.5-10.77L141.5-10.77 141.5-24.21 136.8-24.21 136.45-25.53 141.5-25.53 141.5-37.22 148.32-36.61Q148.18-35.55 146.65-35.38L146.65-35.38 146.65-25.53 146.91-25.53 149.19-29.31Q151.13-27.29 152.49-25.66L152.49-25.66Q155.57-31.51 156.93-38.19L156.93-38.19 163.96-36.12Q163.65-35.2 162.29-35.2L162.29-35.2Q161.15-32.56 159.21-29.71L159.21-29.71 171.65-29.71Z" transform="translate(-1.409999966621399, 38.22999954223633)"></path></g> <!----> <!----> <!----> <!----> <!----> <!----> <!----></g></g> <g data-gra="path-slogan" fill-rule="" class="tp-slogan iconsvg-slogansvg" fill="#e50012" transform="translate(5,48.189998626708984)"><rect x="0" height="1" y="3.9750003814697266" width="19.294174194335938"></rect> <rect height="1" y="3.9750003814697266" width="19.294174194335938" x="148.7658233642578"></rect> <g transform="translate(22.294174194335938,0)"><g transform="scale(1)"><path d="M7.17-6.09L7.17-6.09L6.09-6.09Q6-7.73 3.94-7.83L3.94-7.83Q2.02-7.78 2.02-6.33L2.02-6.33Q2.02-5.39 3.05-5.25L3.05-5.25L5.48-4.69Q7.41-4.22 7.41-2.34L7.41-2.34Q7.36 0.05 4.03 0.14L4.03 0.14Q2.20 0.14 1.45-0.61L1.45-0.61Q0.52-1.31 0.56-2.77L0.56-2.77L1.69-2.77Q1.73-0.80 4.03-0.75L4.03-0.75Q6.28-0.80 6.33-2.20L6.33-2.20Q6.52-3.38 4.45-3.75L4.45-3.75L2.67-4.13Q0.84-4.64 0.84-6.19L0.84-6.19Q0.98-8.72 3.84-8.81L3.84-8.81Q7.08-8.81 7.17-6.09ZM10.03-5.06L14.53-5.06L14.53-8.58L15.70-8.58L15.70 0L14.53 0L14.53-3.98L10.03-3.98L10.03 0L8.86 0L8.86-8.58L10.03-8.58L10.03-5.06ZM23.16 0L22.31-2.48L18.84-2.48L17.95 0L16.78 0L20.02-8.58L21.33-8.58L24.42 0L23.16 0ZM20.58-7.31L19.22-3.52L21.89-3.52L20.63-7.31L20.58-7.31ZM26.86-8.58L31.17-1.64L31.17-8.58L32.30-8.58L32.30 0L30.98 0L26.63-6.94L26.58-6.94L26.58 0L25.45 0L25.45-8.58L26.86-8.58ZM40.50-3.61L37.88-3.61L37.88-4.59L41.63-4.59L41.63 0L40.88 0L40.59-1.08Q39.61 0.09 37.78 0.14L37.78 0.14Q36.05 0.14 35.11-0.75L35.11-0.75Q33.70-2.06 33.75-4.36L33.75-4.36Q34.08-8.63 37.83-8.81L37.83-8.81Q41.02-8.63 41.48-6L41.48-6L40.36-6Q39.89-7.78 37.78-7.83L37.78-7.83Q35.11-7.64 34.97-4.31L34.97-4.31Q34.97-0.75 37.83-0.75L37.83-0.75Q38.86-0.75 39.61-1.31L39.61-1.31Q40.55-2.06 40.50-3.61L40.50-3.61ZM44.58-5.06L49.08-5.06L49.08-8.58L50.25-8.58L50.25 0L49.08 0L49.08-3.98L44.58-3.98L44.58 0L43.41 0L43.41-8.58L44.58-8.58L44.58-5.06ZM57.70 0L56.86-2.48L53.39-2.48L52.50 0L51.33 0L54.56-8.58L55.88-8.58L58.97 0L57.70 0ZM55.13-7.31L53.77-3.52L56.44-3.52L55.17-7.31L55.13-7.31ZM60.19-8.58L61.36-8.58L61.36 0L60.19 0L60.19-8.58ZM73.83-6.05L73.83-6.05L72.70-6.05Q72.28-7.78 70.31-7.83L70.31-7.83Q67.59-7.69 67.50-4.36L67.50-4.36Q67.50-0.80 70.36-0.80L70.36-0.80Q72.33-0.84 72.80-3.19L72.80-3.19L73.92-3.19Q73.41 0.05 70.13 0.14L70.13 0.14Q66.38 0 66.28-4.31L66.28-4.31Q66.47-8.63 70.31-8.81L70.31-8.81Q73.36-8.72 73.83-6.05ZM82.08-4.27L82.08-4.27Q81.89-7.64 79.08-7.83L79.08-7.83Q76.22-7.69 76.08-4.27L76.08-4.27Q76.22-0.94 79.08-0.80L79.08-0.80Q81.89-0.98 82.08-4.27ZM83.25-4.27L83.25-4.27Q82.97 0 79.08 0.14L79.08 0.14Q75.14 0 74.86-4.27L74.86-4.27Q75.09-8.72 79.08-8.81L79.08-8.81Q82.97-8.67 83.25-4.27ZM86.02-8.58L90.33-1.64L90.33-8.58L91.45-8.58L91.45 0L90.14 0L85.78-6.94L85.73-6.94L85.73 0L84.61 0L84.61-8.58L86.02-8.58ZM99.66-3.61L97.03-3.61L97.03-4.59L100.78-4.59L100.78 0L100.03 0L99.75-1.08Q98.77 0.09 96.94 0.14L96.94 0.14Q95.20 0.14 94.27-0.75L94.27-0.75Q92.86-2.06 92.91-4.36L92.91-4.36Q93.23-8.63 96.98-8.81L96.98-8.81Q100.17-8.63 100.64-6L100.64-6L99.52-6Q99.05-7.78 96.94-7.83L96.94-7.83Q94.27-7.64 94.13-4.31L94.13-4.31Q94.13-0.75 96.98-0.75L96.98-0.75Q98.02-0.75 98.77-1.31L98.77-1.31Q99.70-2.06 99.66-3.61L99.66-3.61ZM101.86-1.92L101.86-2.77L102.94-2.77L102.94-2.16Q102.94-0.75 104.25-0.75L104.25-0.75Q105.61-0.75 105.61-2.25L105.61-2.25L105.61-8.58L106.78-8.58L106.78-2.30Q106.73 0.09 104.30 0.14L104.30 0.14Q102 0.09 101.86-1.92L101.86-1.92ZM114.23-3.19L114.23-8.58L115.41-8.58L115.41-3.05Q115.27 0.05 111.89 0.14L111.89 0.14Q108.75 0.05 108.61-2.86L108.61-2.86L108.61-8.58L109.78-8.58L109.78-3.19Q109.83-0.84 111.94-0.80L111.94-0.80Q114.23-0.84 114.23-3.19L114.23-3.19ZM118.59-8.58L122.91-1.64L122.91-8.58L124.03-8.58L124.03 0L122.72 0L118.36-6.94L118.31-6.94L118.31 0L117.19 0L117.19-8.58L118.59-8.58Z" transform="translate(-0.5602678571428572, 8.8125)"></path></g></g></g></g></g><defs v-gra="od"></defs></svg>